<svg width="412" height="102" viewBox="0 0 412 102" fill="none" xmlns="http://www.w3.org/2000/svg">
<path d="M132.109 76V28.7273H150.759C154.345 28.7273 157.399 29.412 159.923 30.7816C162.447 32.1358 164.37 34.0208 165.694 36.4368C167.032 38.8374 167.702 41.6072 167.702 44.7464C167.702 47.8857 167.025 50.6555 165.67 53.0561C164.316 55.4567 162.354 57.3263 159.784 58.6651C157.23 60.0039 154.137 60.6733 150.505 60.6733H138.618V52.6637H148.89C150.813 52.6637 152.398 52.3329 153.645 51.6712C154.906 50.9941 155.845 50.0631 156.461 48.8782C157.092 47.6779 157.407 46.3007 157.407 44.7464C157.407 43.1768 157.092 41.8073 156.461 40.6378C155.845 39.4529 154.906 38.5373 153.645 37.891C152.383 37.2293 150.782 36.8984 148.843 36.8984H142.103V76H132.109ZM174.194 76V28.7273H192.844C196.414 28.7273 199.461 29.3659 201.985 30.6431C204.524 31.9049 206.455 33.6977 207.778 36.0213C209.117 38.3295 209.787 41.0456 209.787 44.1694C209.787 47.3086 209.11 50.0092 207.755 52.2713C206.401 54.518 204.439 56.2415 201.869 57.4418C199.315 58.642 196.222 59.2422 192.59 59.2422H180.103V51.2095H190.975C192.883 51.2095 194.468 50.9479 195.729 50.4247C196.991 49.9015 197.93 49.1167 198.546 48.0703C199.176 47.0239 199.492 45.7236 199.492 44.1694C199.492 42.5998 199.176 41.2764 198.546 40.1992C197.93 39.122 196.984 38.3065 195.706 37.7525C194.445 37.1831 192.852 36.8984 190.928 36.8984H184.188V76H174.194ZM199.723 54.4872L211.472 76H200.438L188.943 54.4872H199.723ZM260.291 52.3636C260.291 57.5187 259.314 61.9044 257.359 65.5206C255.421 69.1368 252.774 71.899 249.419 73.8072C246.08 75.6999 242.325 76.6463 238.155 76.6463C233.954 76.6463 230.184 75.6922 226.845 73.7841C223.505 71.8759 220.866 69.1138 218.927 65.4975C216.988 61.8813 216.019 57.5033 216.019 52.3636C216.019 47.2086 216.988 42.8229 218.927 39.2067C220.866 35.5904 223.505 32.8359 226.845 30.9432C230.184 29.035 233.954 28.081 238.155 28.081C242.325 28.081 246.08 29.035 249.419 30.9432C252.774 32.8359 255.421 35.5904 257.359 39.2067C259.314 42.8229 260.291 47.2086 260.291 52.3636ZM250.158 52.3636C250.158 49.0244 249.658 46.2083 248.657 43.9155C247.673 41.6226 246.28 39.8838 244.479 38.6989C242.679 37.514 240.571 36.9215 238.155 36.9215C235.739 36.9215 233.631 37.514 231.83 38.6989C230.03 39.8838 228.63 41.6226 227.629 43.9155C226.645 46.2083 226.152 49.0244 226.152 52.3636C226.152 55.7029 226.645 58.5189 227.629 60.8118C228.63 63.1046 230.03 64.8435 231.83 66.0284C233.631 67.2133 235.739 67.8058 238.155 67.8058C240.571 67.8058 242.679 67.2133 244.479 66.0284C246.28 64.8435 247.673 63.1046 248.657 60.8118C249.658 58.5189 250.158 55.7029 250.158 52.3636ZM307.235 28.7273V76H298.602L278.036 46.2468H277.689V76H267.695V28.7273H276.466L296.871 58.4574H297.286V28.7273H307.235ZM313.692 36.9677V28.7273H352.517V36.9677H338.044V76H328.165V36.9677H313.692ZM400.193 52.3636C400.193 57.5187 399.216 61.9044 397.262 65.5206C395.323 69.1368 392.676 71.899 389.321 73.8072C385.982 75.6999 382.227 76.6463 378.057 76.6463C373.856 76.6463 370.086 75.6922 366.747 73.7841C363.408 71.8759 360.769 69.1138 358.83 65.4975C356.891 61.8813 355.921 57.5033 355.921 52.3636C355.921 47.2086 356.891 42.8229 358.83 39.2067C360.769 35.5904 363.408 32.8359 366.747 30.9432C370.086 29.035 373.856 28.081 378.057 28.081C382.227 28.081 385.982 29.035 389.321 30.9432C392.676 32.8359 395.323 35.5904 397.262 39.2067C399.216 42.8229 400.193 47.2086 400.193 52.3636ZM390.06 52.3636C390.06 49.0244 389.56 46.2083 388.56 43.9155C387.575 41.6226 386.182 39.8838 384.382 38.6989C382.581 37.514 380.473 36.9215 378.057 36.9215C375.641 36.9215 373.533 37.514 371.733 38.6989C369.932 39.8838 368.532 41.6226 367.532 43.9155C366.547 46.2083 366.054 49.0244 366.054 52.3636C366.054 55.7029 366.547 58.5189 367.532 60.8118C368.532 63.1046 369.932 64.8435 371.733 66.0284C373.533 67.2133 375.641 67.8058 378.057 67.8058C380.473 67.8058 382.581 67.2133 384.382 66.0284C386.182 64.8435 387.575 63.1046 388.56 60.8118C389.56 58.5189 390.06 55.7029 390.06 52.3636Z" fill="#E32F45"/>
<path d="M1.5 8V100" stroke="#E32F45" stroke-width="3"/>
<path d="M0 100.5H48" stroke="#E32F45" stroke-width="3"/>
<path d="M91.5 8V53" stroke="#E32F45" stroke-width="3"/>
<path d="M2 26.5H91" stroke="#E32F45" stroke-width="3"/>
<path d="M25.5 1.5H12.5V16.5H25.5V1.5Z" stroke="#E32F45" stroke-width="3"/>
<path d="M80.5 1.5H68.5V16.5H80.5V1.5Z" stroke="#E32F45" stroke-width="3"/>
<path d="M0 9H11" stroke="#E32F45" stroke-width="3"/>
<path d="M24 8.5H69" stroke="#E32F45" stroke-width="3"/>
<path d="M81 9.5H93" stroke="#E32F45" stroke-width="3"/>
<path d="M14 39.5H79" stroke="#E32F45" stroke-width="3"/>
<path d="M78.5 38V57" stroke="#E32F45" stroke-width="3"/>
<path d="M14 55.5H79" stroke="#E32F45" stroke-width="3"/>
<path d="M62.5 39V55" stroke="#E32F45" stroke-width="3"/>
<path d="M46.5 39V55" stroke="#E32F45" stroke-width="3"/>
<path d="M30.5 39V55" stroke="#E32F45" stroke-width="3"/>
<path d="M14.5 38V87" stroke="#E32F45" stroke-width="3"/>
<path d="M30.5 55V87" stroke="#E32F45" stroke-width="3"/>
<path d="M46.5 57V89" stroke="#E32F45" stroke-width="3"/>
<path d="M13 87.5H46" stroke="#E32F45" stroke-width="3"/>
<path d="M14 71.5H46" stroke="#E32F45" stroke-width="3"/>
<path d="M64.9575 84.9215L94.9575 55.9215" stroke="#E32F45" stroke-width="3"/>
<path d="M74.9575 94.9215L104.957 65.9215" stroke="#E32F45" stroke-width="3"/>
<path d="M94.0607 54.9393L106.061 66.9393" stroke="#E32F45" stroke-width="3"/>
<path d="M86.0607 63.9393L97.0607 74.9393" stroke="#E32F45" stroke-width="3"/>
<path d="M64.0607 83.9393L76.0607 95.9393" stroke="#E32F45" stroke-width="3"/>
<path d="M60.5448 101.636L64.5448 85.6362" stroke="#E32F45" stroke-width="3"/>
<path d="M61.4615 100.6L74.4615 95.6" stroke="#E32F45" stroke-width="3"/>
</svg>
